<svg xmlns="http://www.w3.org/2000/svg" width="75.53px" height="78.48px" viewBox="0 0 75.53 78.48"><defs><style>.cls-1{opacity:0.85;}.cls-2{fill:#000;}.cls-3{font-size:72px;fill:#000;font-family:serif;}</style></defs><title>R</title><g id="Layer_2" data-name="Layer 2"><g id="Layer_1-2" data-name="Layer 1"><g class="cls-1"><path class="cls-2" d="M68.78,18.58l-1.17-2a9.33,9.33,0,0,1,.46,1.08A2.7,2.7,0,0,0,68.78,18.58Z"/><path class="cls-2" d="M66.39,14.85l-.24-.33-.24-.25Z"/><path class="cls-2" d="M63.74,11.85c.46.54.92,1,1.38,1.49A15,15,0,0,0,63.74,11.85Z"/><path class="cls-2" d="M65.71,14.35c-.09-.24-.1-.38.18-.09h0l-.78-.92A8.06,8.06,0,0,1,65.71,14.35Z"/><path class="cls-2" d="M65.71,14.35c.09.23.26.57.3.7A7.27,7.27,0,0,0,65.71,14.35Z"/><path class="cls-2" d="M63.8,14.62c-.29-.26.13-.49-.46-1s-1.26-1.19-1.88-1.71-1.28-1-1.89-1.55-1.27-1.54-1.94-1.93a13,13,0,0,0-1.49-.85c-.59-.26-1.2-.52-1.68-.71-1-.38-1.42-.48-.29.19a33.6,33.6,0,0,1,8.1,6.12c.52.51,1.07,1,1.57,1.53l1.43,1.65c.24.28.49.55.71.84l.64.9L67.9,20c.39.76.7,1.49,1,2.23l-.6-1.49L68,19.92c-.12-.26-.26-.51-.4-.78A11.27,11.27,0,0,0,66.07,17,28.8,28.8,0,0,1,63.8,14.62Z"/><path class="cls-2" d="M73.2,34.72,73,33.54a9.1,9.1,0,0,0-.14-2.71c-.07-.45-.16-.91-.26-1.36s-.28-.89-.43-1.33l0,.85a3.71,3.71,0,0,0,.28.83s.1-.18,0-.65c.06,1.09.11,2.14.23,3.17a13,13,0,0,1,.11,1.54l.09,1.55C73,35.29,73.16,35.31,73.2,34.72Z"/><path class="cls-2" d="M73,36.64l-.1-1.22,0,0L73,36.68Z"/><path class="cls-2" d="M57.09,6.69A37.54,37.54,0,0,0,43.25,1.08a2.66,2.66,0,0,1-1.14,0A9.11,9.11,0,0,0,41,.71C40.32.59,39.61.6,38.91.54h-.77c-.4,0-.28.11,0,.2a7.25,7.25,0,0,1,.73.21c-.13,0-.49-.13-.73-.21A9.56,9.56,0,0,0,37,.55c-.64.05-1.31.11-2,.12a13.63,13.63,0,0,1,2-.12h1.19l.35,0a37,37,0,0,0-4.83,0,5.85,5.85,0,0,0-1,.15,10,10,0,0,1-3,.36l-.84.2H29l-.32,0a30.26,30.26,0,0,0-3.54,1c-.72.36-1.44.75-2.18,1.09l-.32,0-.52.09A5.48,5.48,0,0,1,21,4.25c.66-.16,1.26-.27,1.79-.42.82-.1,1.52-1.09,2.57-1-1.05-.08-1.75.9-2.57,1-.54.15-1.14.26-1.79.42a34.91,34.91,0,0,1-3.47,1.68A9.47,9.47,0,0,1,19.24,4.8,8.27,8.27,0,0,1,21,4.25a5.48,5.48,0,0,0,1.13-.81l.52-.09.32,0c.74-.34,1.46-.73,2.18-1.09a29,29,0,0,0-3.38,1.29,28.32,28.32,0,0,0-3.29,1.65l-1.29.75a9.63,9.63,0,0,0-1.25.81c-.8.58-1.61,1.15-2.39,1.75l-2.21,2c-.73.66-1.35,1.42-2,2.12A38.08,38.08,0,0,0,3,22.36,37.67,37.67,0,0,0,1.1,46,38.25,38.25,0,0,0,15.55,67.7a35.77,35.77,0,0,0,11.51,5.57,39.52,39.52,0,0,0,6.21,1.2l3.15.18c1,.05,2.1-.06,3.15-.09a41.65,41.65,0,0,0,12.36-2.73,43.88,43.88,0,0,0,11.32-6.67,33.7,33.7,0,0,0,8.31-10.43c.52-1.13,1.11-2.22,1.54-3.35s.83-2.25,1.16-3.34L75,44.91c.22-1,.3-1.93.44-2.75,0-.56.06-1.07.06-1.53s-.08-.88-.12-1.24a9.4,9.4,0,0,0-.35-1.69c-.27-.81-.59-1-.91-1-.63.1-1.24,1.27-1.3,1.46-.25.63-.46,1.23-.63,1.83s-.42,1.17-.58,1.77-.33,1.2-.47,1.83l-.59,1.95a34.27,34.27,0,0,1-1.67,4.55c-.42.82-.91,1.69-1.44,2.62s-1.28,1.82-2,2.82c2-2.74,1.65-1.52.1,1-.43.6-.93,1.27-1.48,2a25.55,25.55,0,0,1-1.93,2,15.93,15.93,0,0,1-2.2,1.82l-1.11.78c-.38.23-.76.41-1.13.59q-.8.38-1.59.81c-.52.29-1.12.5-1.67.78l-1.71.82q-.9.35-1.81.74c-1.19.58-2.51.9-3.79,1.39-.65.23-1.34.35-2,.55a18.25,18.25,0,0,1-2.06.49,32.41,32.41,0,0,1-4.26.57c-.72,0-1.45.14-2.17.13l-2.18-.07c-.36,0-.73,0-1.09-.05l-1.07-.16-2.13-.33-2.05-.56-1-.29c-.33-.12-.65-.26-1-.39-.64-.27-1.29-.52-2-.77s-1.3-.63-2-.95l-1-.49c-.33-.19-.66-.4-1-.6-.66-.42-1.37-.8-2-1.28A35.17,35.17,0,0,1,4.65,43.59a32.53,32.53,0,0,1,4.3-24.73A39.45,39.45,0,0,1,17.45,9a13.73,13.73,0,0,1,1.9-1.24,16.49,16.49,0,0,1,2-1.07A39.35,39.35,0,0,1,25.1,5.11,51,51,0,0,1,30.22,3.5,45.67,45.67,0,0,1,35,2.65a34.52,34.52,0,0,0-4.83.72c-.76.2-1.53.44-2.35.67a19.52,19.52,0,0,0-2.57.9c-1.22.46-.86.17,0-.34a18,18,0,0,1,1.59-.84c.59-.23,1.16-.45,1.59-.59A4.19,4.19,0,0,1,29.85,3a5,5,0,0,0,1.36-.06c.81-.12,1.57-.31,2.36-.47l2.49-.35c.76-.14.67.32,1,.28a27.75,27.75,0,0,0,3.24-.22,10.18,10.18,0,0,1,2.59.17,23,23,0,0,1,3.14.93c.63.19,1.25.35,1.89.6l1.28.34a1.18,1.18,0,0,1-.39-.68c.6.26,1.43.63,2,.93-.57-.3-1.41-.67-2-.93a1.18,1.18,0,0,0,.39.68,31,31,0,0,1,9.4,4.42V8.56C57,7.33,55.33,6.26,53.6,5c.4.24.54.4.47.43a3.1,3.1,0,0,1-.82-.29l-.62-.56L53.92,5c.42.19.81.43,1.2.66a9.61,9.61,0,0,1,2.14,1.61l1,.57c.43.4.31.51.33.68l1,.7A35.24,35.24,0,0,0,57.09,6.69Z"/><path class="cls-2" d="M36.92.53h1l-1-.07-1,0-2,.07A9.84,9.84,0,0,0,36.92.53Z"/></g><text class="cls-3" transform="translate(14.35 61.2)">R</text></g></g></svg>
